<svg xmlns="http://www.w3.org/2000/svg" xmlns:xlink="http://www.w3.org/1999/xlink" xmlns:lucid="lucid" width="1523" height="588.43"><g transform="translate(-78.5 184.21602225401875)" lucid:page-tab-id="0_0"><path d="M0-1258.84h1870.87v2581.68H0z" fill="#fff"/><path d="M100-134a6 6 0 0 1 6-6h255.1a6 6 0 0 1 6 6v510.72a6 6 0 0 1-6 6H106a6 6 0 0 1-6-6zM640-156.72a6 6 0 0 1 6-6h308a6 6 0 0 1 6 6V354a6 6 0 0 1-6 6H646a6 6 0 0 1-6-6zM1140-134a6 6 0 0 1 6-6h428a6 6 0 0 1 6 6v248a6 6 0 0 1-6 6h-428a6 6 0 0 1-6-6z" stroke="#5e5e5e" stroke-width="3" fill="#fff"/><path d="M1200-114a6 6 0 0 1 6-6h228a6 6 0 0 1 6 6v48a6 6 0 0 1-6 6h-228a6 6 0 0 1-6-6z" fill="none"/><use xlink:href="#a" transform="matrix(1,0,0,1,1200,-120) translate(86.525 33.6)"/><use xlink:href="#b" transform="matrix(1,0,0,1,1200,-120) translate(120.525 33.6)"/><path d="M700-114a6 6 0 0 1 6-6h228a6 6 0 0 1 6 6v48a6 6 0 0 1-6 6H706a6 6 0 0 1-6-6z" fill="none"/><use xlink:href="#c" transform="matrix(1,0,0,1,700,-120) translate(88.525 33.6)"/><path d="M113.56-114a6 6 0 0 1 6-6h228a6 6 0 0 1 6 6v48a6 6 0 0 1-6 6h-228a6 6 0 0 1-6-6z" fill="none"/><use xlink:href="#d" transform="matrix(1,0,0,1,113.55552354565498,-120) translate(87.075 33.6)"/><path d="M153.56-14a6 6 0 0 1 6-6h148a6 6 0 0 1 6 6v48a6 6 0 0 1-6 6h-148a6 6 0 0 1-6-6z" stroke="#5e5e5e" stroke-width="3" fill="#fff"/><use xlink:href="#e" transform="matrix(1,0,0,1,158.55552354565498,-15) translate(53.425925925925924 30.27777777777778)"/><path d="M133.56 166a6 6 0 0 1 6-6h188a6 6 0 0 1 6 6v78a6 6 0 0 1-6 6h-188a6 6 0 0 1-6-6z" stroke="#5e5e5e" stroke-width="3" fill="#fff"/><use xlink:href="#f" transform="matrix(1,0,0,1,138.55552354565492,165) translate(73.42592592592592 30.27777777777778)"/><use xlink:href="#g" transform="matrix(1,0,0,1,138.55552354565492,165) translate(12.962962962962962 56.94444444444445)"/><use xlink:href="#h" transform="matrix(1,0,0,1,138.55552354565492,165) translate(73.45679012345678 56.94444444444445)"/><use xlink:href="#i" transform="matrix(1,0,0,1,138.55552354565492,165) translate(154.87654320987653 56.94444444444445)"/><path d="M740-34a6 6 0 0 1 6-6h148a6 6 0 0 1 6 6v51.33a6 6 0 0 1-6 6H746a6 6 0 0 1-6-6z" stroke="#5e5e5e" stroke-width="3" fill="#fff"/><use xlink:href="#j" transform="matrix(1,0,0,1,745,-35) translate(24.413580246913583 21.15277777777778)"/><use xlink:href="#k" transform="matrix(1,0,0,1,745,-35) translate(66.38888888888889 21.15277777777778)"/><use xlink:href="#l" transform="matrix(1,0,0,1,745,-35) translate(5.956790123456784 47.81944444444444)"/><path d="M1160-57.33a6 6 0 0 1 6-6h148a6 6 0 0 1 6 6V-6a6 6 0 0 1-6 6h-148a6 6 0 0 1-6-6z" stroke="#5e5e5e" stroke-width="3" fill="#fff"/><use xlink:href="#m" transform="matrix(1,0,0,1,1165,-58.33333333333333) translate(31.203703703703702 21.15277777777778)"/><use xlink:href="#n" transform="matrix(1,0,0,1,1165,-58.33333333333333) translate(30.648148148148145 47.81944444444444)"/><path d="M1400 46a6 6 0 0 1 6-6h148a6 6 0 0 1 6 6v51.33a6 6 0 0 1-6 6h-148a6 6 0 0 1-6-6z" stroke="#5e5e5e" stroke-width="3" fill="#fff"/><use xlink:href="#o" transform="matrix(1,0,0,1,1405,45) translate(25.648148148148145 21.15277777777778)"/><use xlink:href="#p" transform="matrix(1,0,0,1,1405,45) translate(33.08641975308642 47.81944444444444)"/><path d="M1140 206a6 6 0 0 1 6-6h148a6 6 0 0 1 6 6v51.33a6 6 0 0 1-6 6h-148a6 6 0 0 1-6-6z" stroke="#5e5e5e" stroke-width="3" fill="#fff"/><use xlink:href="#q" transform="matrix(1,0,0,1,1145,205) translate(46.666666666666664 31.27777777777778)"/><path d="M433.56 66a6 6 0 0 1 6-6h148a6 6 0 0 1 6 6v288a6 6 0 0 1-6 6h-148a6 6 0 0 1-6-6z" stroke="#5e5e5e" stroke-width="3" fill="#fff"/><use xlink:href="#r" transform="matrix(1,0,0,1,445.5555235456549,72) translate(11.364197530864189 142.84027777777777)"/><path d="M740 256a6 6 0 0 1 6-6h148a6 6 0 0 1 6 6v51.33a6 6 0 0 1-6 6H746a6 6 0 0 1-6-6z" stroke="#5e5e5e" stroke-width="3" fill="#fff"/><use xlink:href="#s" transform="matrix(1,0,0,1,745,255.00000000000003) translate(43.611111111111114 21.15277777777778)"/><use xlink:href="#t" transform="matrix(1,0,0,1,745,255.00000000000003) translate(32.53086419753086 47.81944444444444)"/><use xlink:href="#u" transform="matrix(1,0,0,1,745,255.00000000000003) translate(69.50617283950618 47.81944444444444)"/><path d="M316.06 10h204.72a6 6 0 0 0 6-6v-6.33a6 6 0 0 1 6-6H720" stroke="#5e5e5e" stroke-width="2" fill="none"/><path d="M316.08 10.97h-1.02V9.03h1.02z" stroke="#5e5e5e" stroke-width=".05" fill="#5e5e5e"/><path d="M735.26-8.33L721-3.7v-9.27z" stroke="#5e5e5e" stroke-width="2" fill="#5e5e5e"/><path d="M336.06 200h77.5" stroke="#5e5e5e" stroke-width="2" fill="none"/><path d="M336.08 200.97h-1.02v-1.94h1.02z" stroke="#5e5e5e" stroke-width=".05" fill="#5e5e5e"/><path d="M428.82 200l-14.27 4.63v-9.26z" stroke="#5e5e5e" stroke-width="2" fill="#5e5e5e"/><path d="M596.05 210h64.73a6 6 0 0 1 6 6v67.48a6 6 0 0 0 6 6H720" stroke="#5e5e5e" stroke-width="2" fill="none"/><path d="M596.08 210.97h-1.03v-1.94h1.03z" stroke="#5e5e5e" stroke-width=".05" fill="#5e5e5e"/><path d="M735.26 289.48L721 294.1v-9.26z" stroke="#5e5e5e" stroke-width="2" fill="#5e5e5e"/><path d="M902.5-8.33h193.97a6 6 0 0 0 6-6V-34a6 6 0 0 1 6-6H1140" stroke="#5e5e5e" stroke-width="2" fill="none"/><path d="M902.53-7.36h-1.03V-9.3h1.03z" stroke="#5e5e5e" stroke-width=".05" fill="#5e5e5e"/><path d="M1155.26-40L1141-35.37v-9.27z" stroke="#5e5e5e" stroke-width="2" fill="#5e5e5e"/><path d="M902.5 281.67H1474a6 6 0 0 0 6-6V121.83" stroke="#5e5e5e" stroke-width="2" fill="none"/><path d="M902.53 282.64h-1.03v-1.95h1.03z" stroke="#5e5e5e" stroke-width=".05" fill="#5e5e5e"/><path d="M1480 106.57l4.63 14.27h-9.27z" stroke="#5e5e5e" stroke-width="2" fill="#5e5e5e"/><path d="M500 226a6 6 0 0 1 6-6h228a6 6 0 0 1 6 6v48a6 6 0 0 1-6 6H506a6 6 0 0 1-6-6z" fill="none"/><use xlink:href="#v" transform="matrix(1,0,0,1,500,220) translate(66.05 22.799999999999997)"/><use xlink:href="#w" transform="matrix(1,0,0,1,500,220) translate(129.95 22.799999999999997)"/><use xlink:href="#x" transform="matrix(1,0,0,1,500,220) translate(68.1 44.4)"/><use xlink:href="#y" transform="matrix(1,0,0,1,500,220) translate(129.05 44.4)"/><path d="M700 146a6 6 0 0 1 6-6h228a6 6 0 0 1 6 6v48a6 6 0 0 1-6 6H706a6 6 0 0 1-6-6z" fill="none"/><use xlink:href="#z" transform="matrix(1,0,0,1,700,140) translate(7.074999999999989 33.6)"/><use xlink:href="#A" transform="matrix(1,0,0,1,700,140) translate(77.02499999999999 33.6)"/><use xlink:href="#B" transform="matrix(1,0,0,1,700,140) translate(126.02499999999999 33.6)"/><use xlink:href="#C" transform="matrix(1,0,0,1,700,140) translate(156.975 33.6)"/><path d="M596.05 132.33h45.48a6 6 0 0 1 6 6V163a6 6 0 0 0 6 6h27.97" stroke="#5e5e5e" stroke-width="2" fill="none"/><path d="M596.08 133.3h-1.03v-1.94h1.03z" stroke="#5e5e5e" stroke-width=".05" fill="#5e5e5e"/><path d="M696.76 169l-14.26 4.63v-9.26z" stroke="#5e5e5e" stroke-width="2" fill="#5e5e5e"/><path d="M941 188.5h92.25a6 6 0 0 1 6 6v31.17a6 6 0 0 0 6 6H1120" stroke="#5e5e5e" stroke-width="2" fill="none"/><path d="M941.03 189.47H940v-1.94h1.03z" stroke="#5e5e5e" stroke-width=".05" fill="#5e5e5e"/><path d="M1135.26 231.67L1121 236.3v-9.27z" stroke="#5e5e5e" stroke-width="2" fill="#5e5e5e"/><path d="M780 74.64a6 6 0 0 1 6-6h228a6 6 0 0 1 6 6v48a6 6 0 0 1-6 6H786a6 6 0 0 1-6-6z" fill="none"/><g><use xlink:href="#D" transform="matrix(1,0,0,1,780,68.64198887299062) translate(8.649999999999991 22.799999999999997)"/><use xlink:href="#E" transform="matrix(1,0,0,1,780,68.64198887299062) translate(99.5 22.799999999999997)"/><use xlink:href="#A" transform="matrix(1,0,0,1,780,68.64198887299062) translate(118.45 22.799999999999997)"/><use xlink:href="#F" transform="matrix(1,0,0,1,780,68.64198887299062) translate(167.45 22.799999999999997)"/><use xlink:href="#G" transform="matrix(1,0,0,1,780,68.64198887299062) translate(192.45 22.799999999999997)"/><use xlink:href="#H" transform="matrix(1,0,0,1,780,68.64198887299062) translate(15.649999999999991 44.4)"/><use xlink:href="#I" transform="matrix(1,0,0,1,780,68.64198887299062) translate(49.64999999999999 44.4)"/><use xlink:href="#J" transform="matrix(1,0,0,1,780,68.64198887299062) translate(136.5 44.4)"/></g><path d="M786.82 25.83v14.9a6 6 0 0 0 6 6h76.52a3.4 3.4 0 0 1 3.4 3.4" stroke="#5e5e5e" stroke-width="2" fill="none"/><path d="M787.8 25.86h-1.95v-1.03h1.95z" stroke="#5e5e5e" stroke-width=".05" fill="#5e5e5e"/><path d="M872.75 65.4l-4.64-14.26h9.28z" stroke="#5e5e5e" stroke-width="2" fill="#5e5e5e"/><path d="M972.17 129.64v27.93a6 6 0 0 0 6 6h183.96a6 6 0 0 1 6 6V180" stroke="#5e5e5e" stroke-width="2" fill="none"/><path d="M973.14 129.67h-1.95v-1.03h1.94z" stroke="#5e5e5e" stroke-width=".05" fill="#5e5e5e"/><path d="M1168.13 195.26L1163.5 181h9.27z" stroke="#5e5e5e" stroke-width="2" fill="#5e5e5e"/><path d="M900 3.28a6 6 0 0 1 6-6h228a6 6 0 0 1 6 6v48a6 6 0 0 1-6 6H906a6 6 0 0 1-6-6z" fill="none"/><g><use xlink:href="#K" transform="matrix(1,0,0,1,900,-2.7160222540187533) translate(50.625 33.6)"/><use xlink:href="#L" transform="matrix(1,0,0,1,900,-2.7160222540187533) translate(103.575 33.6)"/><use xlink:href="#M" transform="matrix(1,0,0,1,900,-2.7160222540187533) translate(134.525 33.6)"/></g><path d="M1183.8 2.5v88.78a6 6 0 0 1-6 6h-88.25a6 6 0 0 1-6-6v-15.5" stroke="#5e5e5e" stroke-width="2" fill="none"/><path d="M1184.78 2.53h-1.95V1.5h1.95z" stroke="#5e5e5e" stroke-width=".05" fill="#5e5e5e"/><path d="M1083.55 60.52l4.64 14.27h-9.28z" stroke="#5e5e5e" stroke-width="2" fill="#5e5e5e"/><path d="M1015.74 58.28v5.55a6 6 0 0 1-6 6h-106.6a6 6 0 0 1-6-6v-21.2" stroke="#5e5e5e" stroke-width="2" fill="none"/><path d="M1016.72 58.3h-1.95V57.3h1.95z" stroke="#5e5e5e" stroke-width=".05" fill="#5e5e5e"/><path d="M897.14 27.36l4.64 14.27h-9.27z" stroke="#5e5e5e" stroke-width="2" fill="#5e5e5e"/><defs><path d="M205 0l-28-72H64L36 0H1l101-248h38L239 0h-34zm-38-99l-47-123c-12 45-31 82-46 123h93" id="N"/><path d="M30-248c87 1 191-15 191 75 0 78-77 80-158 76V0H30v-248zm33 125c57 0 124 11 124-50 0-59-68-47-124-48v98" id="O"/><path d="M33 0v-248h34V0H33" id="P"/><g id="a"><use transform="matrix(0.05,0,0,0.05,0,0)" xlink:href="#N"/><use transform="matrix(0.05,0,0,0.05,12,0)" xlink:href="#O"/><use transform="matrix(0.05,0,0,0.05,24,0)" xlink:href="#P"/></g><path d="M24-231v-30h32v30H24zM-9 49c24 4 33-6 33-30v-209h32V24c2 40-23 58-65 49V49" id="Q"/><path d="M141-36C126-15 110 5 73 4 37 3 15-17 15-53c-1-64 63-63 125-63 3-35-9-54-41-54-24 1-41 7-42 31l-33-3c5-37 33-52 76-52 45 0 72 20 72 64v82c-1 20 7 32 28 27v20c-31 9-61-2-59-35zM48-53c0 20 12 33 32 33 41-3 63-29 60-74-43 2-92-5-92 41" id="R"/><path d="M108 0H70L1-190h34L89-25l56-165h34" id="S"/><g id="b"><use transform="matrix(0.05,0,0,0.05,0,0)" xlink:href="#Q"/><use transform="matrix(0.05,0,0,0.05,3.95,0)" xlink:href="#R"/><use transform="matrix(0.05,0,0,0.05,13.949999999999998,0)" xlink:href="#S"/><use transform="matrix(0.05,0,0,0.05,22.95,0)" xlink:href="#R"/></g><path d="M190 0L58-211 59 0H30v-248h39L202-35l-2-213h31V0h-41" id="T"/><path d="M100-194c63 0 86 42 84 106H49c0 40 14 67 53 68 26 1 43-12 49-29l28 8c-11 28-37 45-77 45C44 4 14-33 15-96c1-61 26-98 85-98zm52 81c6-60-76-77-97-28-3 7-6 17-6 28h103" id="U"/><path d="M141 0L90-78 38 0H4l68-98-65-92h35l48 74 47-74h35l-64 92 68 98h-35" id="V"/><path d="M59-47c-2 24 18 29 38 22v24C64 9 27 4 27-40v-127H5v-23h24l9-43h21v43h35v23H59v120" id="W"/><path d="M33 0v-38h34V0H33" id="X"/><path d="M153-248C145-148 188 4 80 4 36 3 13-21 6-62l32-5c4 25 16 42 43 43 27 0 39-20 39-49v-147H72v-28h81" id="Y"/><path d="M185-189c-5-48-123-54-124 2 14 75 158 14 163 119 3 78-121 87-175 55-17-10-28-26-33-46l33-7c5 56 141 63 141-1 0-78-155-14-162-118-5-82 145-84 179-34 5 7 8 16 11 25" id="Z"/><g id="c"><use transform="matrix(0.05,0,0,0.05,0,0)" xlink:href="#T"/><use transform="matrix(0.05,0,0,0.05,12.950000000000001,0)" xlink:href="#U"/><use transform="matrix(0.05,0,0,0.05,22.950000000000003,0)" xlink:href="#V"/><use transform="matrix(0.05,0,0,0.05,31.950000000000003,0)" xlink:href="#W"/><use transform="matrix(0.05,0,0,0.05,36.95,0)" xlink:href="#X"/><use transform="matrix(0.05,0,0,0.05,41.95,0)" xlink:href="#Y"/><use transform="matrix(0.05,0,0,0.05,50.95,0)" xlink:href="#Z"/></g><path d="M160-131c35 5 61 23 61 61C221 17 115-2 30 0v-248c76 3 177-17 177 60 0 33-19 50-47 57zm-97-11c50-1 110 9 110-42 0-47-63-36-110-37v79zm0 115c55-2 124 14 124-45 0-56-70-42-124-44v89" id="aa"/><path d="M114-163C36-179 61-72 57 0H25l-1-190h30c1 12-1 29 2 39 6-27 23-49 58-41v29" id="ab"/><path d="M100-194c62-1 85 37 85 99 1 63-27 99-86 99S16-35 15-95c0-66 28-99 85-99zM99-20c44 1 53-31 53-75 0-43-8-75-51-75s-53 32-53 75 10 74 51 75" id="ac"/><path d="M206 0h-36l-40-164L89 0H53L-1-190h32L70-26l43-164h34l41 164 42-164h31" id="ad"/><path d="M135-143c-3-34-86-38-87 0 15 53 115 12 119 90S17 21 10-45l28-5c4 36 97 45 98 0-10-56-113-15-118-90-4-57 82-63 122-42 12 7 21 19 24 35" id="ae"/><g id="d"><use transform="matrix(0.05,0,0,0.05,0,0)" xlink:href="#aa"/><use transform="matrix(0.05,0,0,0.05,12,0)" xlink:href="#ab"/><use transform="matrix(0.05,0,0,0.05,17.95,0)" xlink:href="#ac"/><use transform="matrix(0.05,0,0,0.05,27.950000000000003,0)" xlink:href="#ad"/><use transform="matrix(0.05,0,0,0.05,40.9,0)" xlink:href="#ae"/><use transform="matrix(0.05,0,0,0.05,49.9,0)" xlink:href="#U"/><use transform="matrix(0.05,0,0,0.05,59.900000000000006,0)" xlink:href="#ab"/></g><path d="M84 4C-5 8 30-112 23-190h32v120c0 31 7 50 39 49 72-2 45-101 50-169h31l1 190h-30c-1-10 1-25-2-33-11 22-28 36-60 37" id="af"/><g id="e"><use transform="matrix(0.06172839506172839,0,0,0.06172839506172839,0,0)" xlink:href="#af"/><use transform="matrix(0.06172839506172839,0,0,0.06172839506172839,12.345679012345679,0)" xlink:href="#ae"/><use transform="matrix(0.06172839506172839,0,0,0.06172839506172839,23.45679012345679,0)" xlink:href="#U"/><use transform="matrix(0.06172839506172839,0,0,0.06172839506172839,35.80246913580247,0)" xlink:href="#ab"/></g><g id="f"><use transform="matrix(0.06172839506172839,0,0,0.06172839506172839,0,0)" xlink:href="#af"/><use transform="matrix(0.06172839506172839,0,0,0.06172839506172839,12.345679012345679,0)" xlink:href="#ae"/><use transform="matrix(0.06172839506172839,0,0,0.06172839506172839,23.45679012345679,0)" xlink:href="#U"/><use transform="matrix(0.06172839506172839,0,0,0.06172839506172839,35.80246913580247,0)" xlink:href="#ab"/></g><path d="M117-194c89-4 53 116 60 194h-32v-121c0-31-8-49-39-48C34-167 62-67 57 0H25l-1-190h30c1 10-1 24 2 32 11-22 29-35 61-36" id="ag"/><path d="M34 0v-190h32V0H34zM24-211c8-23 27-35 38-54h36v5l-58 49H24" id="ah"/><g id="g"><use transform="matrix(0.06172839506172839,0,0,0.06172839506172839,0,0)" xlink:href="#U"/><use transform="matrix(0.06172839506172839,0,0,0.06172839506172839,12.345679012345679,0)" xlink:href="#ag"/><use transform="matrix(0.06172839506172839,0,0,0.06172839506172839,24.691358024691358,0)" xlink:href="#S"/><use transform="matrix(0.06172839506172839,0,0,0.06172839506172839,35.80246913580247,0)" xlink:href="#ah"/><use transform="matrix(0.06172839506172839,0,0,0.06172839506172839,41.97530864197531,0)" xlink:href="#R"/></g><path d="M24-231v-30h32v30H24zM24 0v-190h32V0H24" id="ai"/><g id="h"><use transform="matrix(0.06172839506172839,0,0,0.06172839506172839,0,0)" xlink:href="#ae"/><use transform="matrix(0.06172839506172839,0,0,0.06172839506172839,11.11111111111111,0)" xlink:href="#U"/><use transform="matrix(0.06172839506172839,0,0,0.06172839506172839,23.45679012345679,0)" xlink:href="#ae"/><use transform="matrix(0.06172839506172839,0,0,0.06172839506172839,34.5679012345679,0)" xlink:href="#ae"/><use transform="matrix(0.06172839506172839,0,0,0.06172839506172839,45.67901234567901,0)" xlink:href="#ai"/><use transform="matrix(0.06172839506172839,0,0,0.06172839506172839,50.55555555555556,0)" xlink:href="#ac"/><use transform="matrix(0.06172839506172839,0,0,0.06172839506172839,62.901234567901234,0)" xlink:href="#ag"/></g><path d="M30-248c118-7 216 8 213 122C240-48 200 0 122 0H30v-248zM63-27c89 8 146-16 146-99s-60-101-146-95v194" id="aj"/><g id="i"><use transform="matrix(0.06172839506172839,0,0,0.06172839506172839,0,0)" xlink:href="#P"/><use transform="matrix(0.06172839506172839,0,0,0.06172839506172839,6.172839506172839,0)" xlink:href="#aj"/></g><g id="j"><use transform="matrix(0.06172839506172839,0,0,0.06172839506172839,0,0)" xlink:href="#N"/><use transform="matrix(0.06172839506172839,0,0,0.06172839506172839,14.814814814814813,0)" xlink:href="#O"/><use transform="matrix(0.06172839506172839,0,0,0.06172839506172839,29.629629629629626,0)" xlink:href="#P"/></g><path d="M233-177c-1 41-23 64-60 70L243 0h-38l-65-103H63V0H30v-248c88 3 205-21 203 71zM63-129c60-2 137 13 137-47 0-61-80-42-137-45v92" id="ak"/><g id="k"><use transform="matrix(0.06172839506172839,0,0,0.06172839506172839,0,0)" xlink:href="#ak"/><use transform="matrix(0.06172839506172839,0,0,0.06172839506172839,15.987654320987653,0)" xlink:href="#ac"/><use transform="matrix(0.06172839506172839,0,0,0.06172839506172839,28.333333333333332,0)" xlink:href="#af"/><use transform="matrix(0.06172839506172839,0,0,0.06172839506172839,40.67901234567901,0)" xlink:href="#W"/><use transform="matrix(0.06172839506172839,0,0,0.06172839506172839,46.851851851851855,0)" xlink:href="#U"/></g><path d="M0 4l72-265h28L28 4H0" id="al"/><path d="M115-194c55 1 70 41 70 98S169 2 115 4C84 4 66-9 55-30l1 105H24l-1-265h31l2 30c10-21 28-34 59-34zm-8 174c40 0 45-34 45-75s-6-73-45-74c-42 0-51 32-51 76 0 43 10 73 51 73" id="am"/><path d="M106-169C34-169 62-67 57 0H25v-261h32l-1 103c12-21 28-36 61-36 89 0 53 116 60 194h-32v-121c2-32-8-49-39-48" id="an"/><path d="M24 0v-261h32V0H24" id="ao"/><path d="M177-190C167-65 218 103 67 71c-23-6-38-20-44-43l32-5c15 47 100 32 89-28v-30C133-14 115 1 83 1 29 1 15-40 15-95c0-56 16-97 71-98 29-1 48 16 59 35 1-10 0-23 2-32h30zM94-22c36 0 50-32 50-73 0-42-14-75-50-75-39 0-46 34-46 75s6 73 46 73" id="ap"/><g id="l"><use transform="matrix(0.06172839506172839,0,0,0.06172839506172839,0,0)" xlink:href="#al"/><use transform="matrix(0.06172839506172839,0,0,0.06172839506172839,6.172839506172839,0)" xlink:href="#R"/><use transform="matrix(0.06172839506172839,0,0,0.06172839506172839,18.51851851851852,0)" xlink:href="#am"/><use transform="matrix(0.06172839506172839,0,0,0.06172839506172839,30.864197530864196,0)" xlink:href="#ai"/><use transform="matrix(0.06172839506172839,0,0,0.06172839506172839,35.74074074074074,0)" xlink:href="#al"/><use transform="matrix(0.06172839506172839,0,0,0.06172839506172839,41.91358024691358,0)" xlink:href="#R"/><use transform="matrix(0.06172839506172839,0,0,0.06172839506172839,54.25925925925926,0)" xlink:href="#af"/><use transform="matrix(0.06172839506172839,0,0,0.06172839506172839,66.60493827160494,0)" xlink:href="#W"/><use transform="matrix(0.06172839506172839,0,0,0.06172839506172839,72.77777777777777,0)" xlink:href="#an"/><use transform="matrix(0.06172839506172839,0,0,0.06172839506172839,85.12345679012346,0)" xlink:href="#al"/><use transform="matrix(0.06172839506172839,0,0,0.06172839506172839,91.29629629629629,0)" xlink:href="#ao"/><use transform="matrix(0.06172839506172839,0,0,0.06172839506172839,96.17283950617283,0)" xlink:href="#ac"/><use transform="matrix(0.06172839506172839,0,0,0.06172839506172839,108.51851851851852,0)" xlink:href="#ap"/><use transform="matrix(0.06172839506172839,0,0,0.06172839506172839,120.8641975308642,0)" xlink:href="#ai"/><use transform="matrix(0.06172839506172839,0,0,0.06172839506172839,125.74074074074075,0)" xlink:href="#ag"/></g><path d="M30 0v-248h187v28H63v79h144v27H63v87h162V0H30" id="aq"/><path d="M85-194c31 0 48 13 60 33l-1-100h32l1 261h-30c-2-10 0-23-3-31C134-8 116 4 85 4 32 4 16-35 15-94c0-66 23-100 70-100zm9 24c-40 0-46 34-46 75 0 40 6 74 45 74 42 0 51-32 51-76 0-42-9-74-50-73" id="ar"/><g id="m"><use transform="matrix(0.06172839506172839,0,0,0.06172839506172839,0,0)" xlink:href="#aq"/><use transform="matrix(0.06172839506172839,0,0,0.06172839506172839,14.814814814814813,0)" xlink:href="#ag"/><use transform="matrix(0.06172839506172839,0,0,0.06172839506172839,27.160493827160494,0)" xlink:href="#ar"/><use transform="matrix(0.06172839506172839,0,0,0.06172839506172839,39.50617283950617,0)" xlink:href="#am"/><use transform="matrix(0.06172839506172839,0,0,0.06172839506172839,51.85185185185185,0)" xlink:href="#ac"/><use transform="matrix(0.06172839506172839,0,0,0.06172839506172839,64.19753086419753,0)" xlink:href="#ai"/><use transform="matrix(0.06172839506172839,0,0,0.06172839506172839,69.07407407407408,0)" xlink:href="#ag"/><use transform="matrix(0.06172839506172839,0,0,0.06172839506172839,81.41975308641976,0)" xlink:href="#W"/></g><g id="n"><use transform="matrix(0.06172839506172839,0,0,0.06172839506172839,0,0)" xlink:href="#al"/><use transform="matrix(0.06172839506172839,0,0,0.06172839506172839,6.172839506172839,0)" xlink:href="#R"/><use transform="matrix(0.06172839506172839,0,0,0.06172839506172839,18.51851851851852,0)" xlink:href="#am"/><use transform="matrix(0.06172839506172839,0,0,0.06172839506172839,30.864197530864196,0)" xlink:href="#ai"/><use transform="matrix(0.06172839506172839,0,0,0.06172839506172839,35.74074074074074,0)" xlink:href="#al"/><use transform="matrix(0.06172839506172839,0,0,0.06172839506172839,41.91358024691358,0)" xlink:href="#ao"/><use transform="matrix(0.06172839506172839,0,0,0.06172839506172839,46.79012345679013,0)" xlink:href="#ac"/><use transform="matrix(0.06172839506172839,0,0,0.06172839506172839,59.135802469135804,0)" xlink:href="#ap"/><use transform="matrix(0.06172839506172839,0,0,0.06172839506172839,71.48148148148148,0)" xlink:href="#ai"/><use transform="matrix(0.06172839506172839,0,0,0.06172839506172839,76.35802469135803,0)" xlink:href="#ag"/></g><g id="o"><use transform="matrix(0.06172839506172839,0,0,0.06172839506172839,0,0)" xlink:href="#aq"/><use transform="matrix(0.06172839506172839,0,0,0.06172839506172839,14.814814814814813,0)" xlink:href="#ag"/><use transform="matrix(0.06172839506172839,0,0,0.06172839506172839,27.160493827160494,0)" xlink:href="#ar"/><use transform="matrix(0.06172839506172839,0,0,0.06172839506172839,39.50617283950617,0)" xlink:href="#am"/><use transform="matrix(0.06172839506172839,0,0,0.06172839506172839,51.85185185185185,0)" xlink:href="#ac"/><use transform="matrix(0.06172839506172839,0,0,0.06172839506172839,64.19753086419753,0)" xlink:href="#ai"/><use transform="matrix(0.06172839506172839,0,0,0.06172839506172839,69.07407407407408,0)" xlink:href="#ag"/><use transform="matrix(0.06172839506172839,0,0,0.06172839506172839,81.41975308641976,0)" xlink:href="#W"/><use transform="matrix(0.06172839506172839,0,0,0.06172839506172839,87.5925925925926,0)" xlink:href="#ae"/></g><g id="p"><use transform="matrix(0.06172839506172839,0,0,0.06172839506172839,0,0)" xlink:href="#am"/><use transform="matrix(0.06172839506172839,0,0,0.06172839506172839,12.345679012345679,0)" xlink:href="#ab"/><use transform="matrix(0.06172839506172839,0,0,0.06172839506172839,19.691358024691358,0)" xlink:href="#ai"/><use transform="matrix(0.06172839506172839,0,0,0.06172839506172839,24.5679012345679,0)" xlink:href="#S"/><use transform="matrix(0.06172839506172839,0,0,0.06172839506172839,35.67901234567901,0)" xlink:href="#R"/><use transform="matrix(0.06172839506172839,0,0,0.06172839506172839,48.02469135802469,0)" xlink:href="#ar"/><use transform="matrix(0.06172839506172839,0,0,0.06172839506172839,60.37037037037037,0)" xlink:href="#ac"/><use transform="matrix(0.06172839506172839,0,0,0.06172839506172839,72.71604938271605,0)" xlink:href="#ae"/></g><g id="q"><use transform="matrix(0.06172839506172839,0,0,0.06172839506172839,0,0)" xlink:href="#ak"/><use transform="matrix(0.06172839506172839,0,0,0.06172839506172839,15.987654320987653,0)" xlink:href="#U"/><use transform="matrix(0.06172839506172839,0,0,0.06172839506172839,28.333333333333332,0)" xlink:href="#ar"/><use transform="matrix(0.06172839506172839,0,0,0.06172839506172839,40.67901234567901,0)" xlink:href="#ai"/><use transform="matrix(0.06172839506172839,0,0,0.06172839506172839,45.55555555555556,0)" xlink:href="#ae"/></g><path d="M240 0l2-218c-23 76-54 145-80 218h-23L58-218 59 0H30v-248h44l77 211c21-75 51-140 76-211h43V0h-30" id="as"/><g id="r"><use transform="matrix(0.06172839506172839,0,0,0.06172839506172839,0,0)" xlink:href="#as"/><use transform="matrix(0.06172839506172839,0,0,0.06172839506172839,18.456790123456788,0)" xlink:href="#ai"/><use transform="matrix(0.06172839506172839,0,0,0.06172839506172839,23.33333333333333,0)" xlink:href="#ar"/><use transform="matrix(0.06172839506172839,0,0,0.06172839506172839,35.679012345679006,0)" xlink:href="#ar"/><use transform="matrix(0.06172839506172839,0,0,0.06172839506172839,48.02469135802468,0)" xlink:href="#ao"/><use transform="matrix(0.06172839506172839,0,0,0.06172839506172839,52.90123456790123,0)" xlink:href="#U"/><use transform="matrix(0.06172839506172839,0,0,0.06172839506172839,65.24691358024691,0)" xlink:href="#ad"/><use transform="matrix(0.06172839506172839,0,0,0.06172839506172839,81.23456790123457,0)" xlink:href="#R"/><use transform="matrix(0.06172839506172839,0,0,0.06172839506172839,93.58024691358025,0)" xlink:href="#ab"/><use transform="matrix(0.06172839506172839,0,0,0.06172839506172839,100.92592592592594,0)" xlink:href="#U"/></g><path d="M101-234c-31-9-42 10-38 44h38v23H63V0H32v-167H5v-23h27c-7-52 17-82 69-68v24" id="at"/><g id="s"><use transform="matrix(0.06172839506172839,0,0,0.06172839506172839,0,0)" xlink:href="#O"/><use transform="matrix(0.06172839506172839,0,0,0.06172839506172839,14.814814814814813,0)" xlink:href="#ab"/><use transform="matrix(0.06172839506172839,0,0,0.06172839506172839,22.160493827160494,0)" xlink:href="#ac"/><use transform="matrix(0.06172839506172839,0,0,0.06172839506172839,34.50617283950617,0)" xlink:href="#at"/><use transform="matrix(0.06172839506172839,0,0,0.06172839506172839,40.67901234567901,0)" xlink:href="#ai"/><use transform="matrix(0.06172839506172839,0,0,0.06172839506172839,45.55555555555556,0)" xlink:href="#ao"/><use transform="matrix(0.06172839506172839,0,0,0.06172839506172839,50.4320987654321,0)" xlink:href="#U"/></g><g id="t"><use transform="matrix(0.06172839506172839,0,0,0.06172839506172839,0,0)" xlink:href="#S"/><use transform="matrix(0.06172839506172839,0,0,0.06172839506172839,11.11111111111111,0)" xlink:href="#U"/><use transform="matrix(0.06172839506172839,0,0,0.06172839506172839,23.45679012345679,0)" xlink:href="#ab"/></g><g id="u"><use transform="matrix(0.06172839506172839,0,0,0.06172839506172839,0,0)" xlink:href="#am"/><use transform="matrix(0.06172839506172839,0,0,0.06172839506172839,12.345679012345679,0)" xlink:href="#U"/><use transform="matrix(0.06172839506172839,0,0,0.06172839506172839,24.691358024691358,0)" xlink:href="#ab"/><use transform="matrix(0.06172839506172839,0,0,0.06172839506172839,32.03703703703704,0)" xlink:href="#at"/><use transform="matrix(0.06172839506172839,0,0,0.06172839506172839,38.20987654320988,0)" xlink:href="#ai"/><use transform="matrix(0.06172839506172839,0,0,0.06172839506172839,43.086419753086425,0)" xlink:href="#ao"/></g><path d="M197 0v-115H63V0H30v-248h33v105h134v-105h34V0h-34" id="au"/><g id="v"><use transform="matrix(0.05,0,0,0.05,0,0)" xlink:href="#au"/><use transform="matrix(0.05,0,0,0.05,12.950000000000001,0)" xlink:href="#U"/><use transform="matrix(0.05,0,0,0.05,22.950000000000003,0)" xlink:href="#R"/><use transform="matrix(0.05,0,0,0.05,32.95,0)" xlink:href="#ar"/><use transform="matrix(0.05,0,0,0.05,42.95,0)" xlink:href="#U"/><use transform="matrix(0.05,0,0,0.05,52.95,0)" xlink:href="#ab"/></g><path d="M143 0L79-87 56-68V0H24v-261h32v163l83-92h37l-77 82L181 0h-38" id="av"/><g id="w"><use transform="matrix(0.05,0,0,0.05,0,0)" xlink:href="#W"/><use transform="matrix(0.05,0,0,0.05,5,0)" xlink:href="#ac"/><use transform="matrix(0.05,0,0,0.05,15,0)" xlink:href="#av"/><use transform="matrix(0.05,0,0,0.05,24,0)" xlink:href="#U"/><use transform="matrix(0.05,0,0,0.05,34,0)" xlink:href="#ag"/></g><g id="x"><use transform="matrix(0.05,0,0,0.05,0,0)" xlink:href="#an"/><use transform="matrix(0.05,0,0,0.05,10,0)" xlink:href="#U"/><use transform="matrix(0.05,0,0,0.05,20,0)" xlink:href="#R"/><use transform="matrix(0.05,0,0,0.05,30,0)" xlink:href="#ar"/><use transform="matrix(0.05,0,0,0.05,40,0)" xlink:href="#U"/><use transform="matrix(0.05,0,0,0.05,50,0)" xlink:href="#ab"/></g><path d="M210-169c-67 3-38 105-44 169h-31v-121c0-29-5-50-35-48C34-165 62-65 56 0H25l-1-190h30c1 10-1 24 2 32 10-44 99-50 107 0 11-21 27-35 58-36 85-2 47 119 55 194h-31v-121c0-29-5-49-35-48" id="aw"/><g id="y"><use transform="matrix(0.05,0,0,0.05,0,0)" xlink:href="#U"/><use transform="matrix(0.05,0,0,0.05,10,0)" xlink:href="#aw"/><use transform="matrix(0.05,0,0,0.05,24.950000000000003,0)" xlink:href="#R"/><use transform="matrix(0.05,0,0,0.05,34.95,0)" xlink:href="#ai"/><use transform="matrix(0.05,0,0,0.05,38.900000000000006,0)" xlink:href="#ao"/></g><path d="M140-251c81 0 123 46 123 126C263-46 219 4 140 4 59 4 17-45 17-125s42-126 123-126zm0 227c63 0 89-41 89-101s-29-99-89-99c-61 0-89 39-89 99S79-25 140-24" id="ax"/><path d="M115-194c53 0 69 39 70 98 0 66-23 100-70 100C84 3 66-7 56-30L54 0H23l1-261h32v101c10-23 28-34 59-34zm-8 174c40 0 45-34 45-75 0-40-5-75-45-74-42 0-51 32-51 76 0 43 10 73 51 73" id="ay"/><g id="z"><use transform="matrix(0.05,0,0,0.05,0,0)" xlink:href="#ax"/><use transform="matrix(0.05,0,0,0.05,14,0)" xlink:href="#ay"/><use transform="matrix(0.05,0,0,0.05,24,0)" xlink:href="#W"/><use transform="matrix(0.05,0,0,0.05,29,0)" xlink:href="#U"/><use transform="matrix(0.05,0,0,0.05,39,0)" xlink:href="#ag"/><use transform="matrix(0.05,0,0,0.05,49,0)" xlink:href="#U"/><use transform="matrix(0.05,0,0,0.05,59,0)" xlink:href="#ab"/></g><g id="A"><use transform="matrix(0.05,0,0,0.05,0,0)" xlink:href="#W"/><use transform="matrix(0.05,0,0,0.05,5,0)" xlink:href="#ac"/><use transform="matrix(0.05,0,0,0.05,15,0)" xlink:href="#av"/><use transform="matrix(0.05,0,0,0.05,24,0)" xlink:href="#U"/><use transform="matrix(0.05,0,0,0.05,34,0)" xlink:href="#ag"/></g><g id="B"><use transform="matrix(0.05,0,0,0.05,0,0)" xlink:href="#am"/><use transform="matrix(0.05,0,0,0.05,10,0)" xlink:href="#ac"/><use transform="matrix(0.05,0,0,0.05,20,0)" xlink:href="#ab"/></g><g id="C"><use transform="matrix(0.05,0,0,0.05,0,0)" xlink:href="#ae"/><use transform="matrix(0.05,0,0,0.05,9,0)" xlink:href="#U"/><use transform="matrix(0.05,0,0,0.05,19,0)" xlink:href="#ae"/><use transform="matrix(0.05,0,0,0.05,28,0)" xlink:href="#ae"/><use transform="matrix(0.05,0,0,0.05,37,0)" xlink:href="#ai"/><use transform="matrix(0.05,0,0,0.05,40.95,0)" xlink:href="#ac"/><use transform="matrix(0.05,0,0,0.05,50.95,0)" xlink:href="#ag"/><use transform="matrix(0.05,0,0,0.05,60.95,0)" xlink:href="#P"/><use transform="matrix(0.05,0,0,0.05,65.95,0)" xlink:href="#ar"/></g><path d="M96-169c-40 0-48 33-48 73s9 75 48 75c24 0 41-14 43-38l32 2c-6 37-31 61-74 61-59 0-76-41-82-99-10-93 101-131 147-64 4 7 5 14 7 22l-32 3c-4-21-16-35-41-35" id="az"/><g id="D"><use transform="matrix(0.05,0,0,0.05,0,0)" xlink:href="#N"/><use transform="matrix(0.05,0,0,0.05,12,0)" xlink:href="#ao"/><use transform="matrix(0.05,0,0,0.05,15.949999999999998,0)" xlink:href="#aw"/><use transform="matrix(0.05,0,0,0.05,30.899999999999995,0)" xlink:href="#R"/><use transform="matrix(0.05,0,0,0.05,40.9,0)" xlink:href="#az"/><use transform="matrix(0.05,0,0,0.05,49.9,0)" xlink:href="#U"/><use transform="matrix(0.05,0,0,0.05,59.900000000000006,0)" xlink:href="#ag"/><use transform="matrix(0.05,0,0,0.05,69.9,0)" xlink:href="#R"/><use transform="matrix(0.05,0,0,0.05,79.9,0)" xlink:href="#ab"/></g><g id="E"><use transform="matrix(0.05,0,0,0.05,0,0)" xlink:href="#U"/><use transform="matrix(0.05,0,0,0.05,10,0)" xlink:href="#ao"/></g><g id="F"><use transform="matrix(0.05,0,0,0.05,0,0)" xlink:href="#U"/><use transform="matrix(0.05,0,0,0.05,10,0)" xlink:href="#ag"/></g><g id="G"><use transform="matrix(0.05,0,0,0.05,0,0)" xlink:href="#ab"/><use transform="matrix(0.05,0,0,0.05,5.95,0)" xlink:href="#U"/><use transform="matrix(0.05,0,0,0.05,15.949999999999998,0)" xlink:href="#ar"/><use transform="matrix(0.05,0,0,0.05,25.950000000000003,0)" xlink:href="#ai"/><use transform="matrix(0.05,0,0,0.05,29.899999999999995,0)" xlink:href="#ae"/></g><g id="H"><use transform="matrix(0.05,0,0,0.05,0,0)" xlink:href="#az"/><use transform="matrix(0.05,0,0,0.05,9,0)" xlink:href="#ac"/><use transform="matrix(0.05,0,0,0.05,19,0)" xlink:href="#ag"/></g><g id="I"><use transform="matrix(0.05,0,0,0.05,0,0)" xlink:href="#U"/><use transform="matrix(0.05,0,0,0.05,10,0)" xlink:href="#V"/><use transform="matrix(0.05,0,0,0.05,19,0)" xlink:href="#am"/><use transform="matrix(0.05,0,0,0.05,29,0)" xlink:href="#ai"/><use transform="matrix(0.05,0,0,0.05,32.95,0)" xlink:href="#ab"/><use transform="matrix(0.05,0,0,0.05,38.900000000000006,0)" xlink:href="#R"/><use transform="matrix(0.05,0,0,0.05,48.900000000000006,0)" xlink:href="#az"/><use transform="matrix(0.05,0,0,0.05,57.900000000000006,0)" xlink:href="#ai"/><use transform="matrix(0.05,0,0,0.05,61.85,0)" xlink:href="#ac"/><use transform="matrix(0.05,0,0,0.05,71.85000000000001,0)" xlink:href="#ag"/></g><path d="M87 75C49 33 22-17 22-94c0-76 28-126 65-167h31c-38 41-64 92-64 168S80 34 118 75H87" id="aA"/><path d="M33-261c38 41 65 92 65 168S71 34 33 75H2C39 34 66-17 66-93S39-220 2-261h31" id="aB"/><g id="J"><use transform="matrix(0.05,0,0,0.05,0,0)" xlink:href="#aA"/><use transform="matrix(0.05,0,0,0.05,5.95,0)" xlink:href="#ae"/><use transform="matrix(0.05,0,0,0.05,14.949999999999998,0)" xlink:href="#U"/><use transform="matrix(0.05,0,0,0.05,24.95,0)" xlink:href="#ae"/><use transform="matrix(0.05,0,0,0.05,33.95,0)" xlink:href="#ae"/><use transform="matrix(0.05,0,0,0.05,42.95,0)" xlink:href="#ai"/><use transform="matrix(0.05,0,0,0.05,46.900000000000006,0)" xlink:href="#ac"/><use transform="matrix(0.05,0,0,0.05,56.900000000000006,0)" xlink:href="#ag"/><use transform="matrix(0.05,0,0,0.05,66.9,0)" xlink:href="#P"/><use transform="matrix(0.05,0,0,0.05,71.9,0)" xlink:href="#ar"/><use transform="matrix(0.05,0,0,0.05,81.9,0)" xlink:href="#aB"/></g><path d="M127-220V0H93v-220H8v-28h204v28h-85" id="aC"/><g id="K"><use transform="matrix(0.05,0,0,0.05,0,0)" xlink:href="#aC"/><use transform="matrix(0.05,0,0,0.05,8.950000000000001,0)" xlink:href="#ac"/><use transform="matrix(0.05,0,0,0.05,18.950000000000003,0)" xlink:href="#av"/><use transform="matrix(0.05,0,0,0.05,27.950000000000003,0)" xlink:href="#U"/><use transform="matrix(0.05,0,0,0.05,37.95,0)" xlink:href="#ag"/></g><g id="L"><use transform="matrix(0.05,0,0,0.05,0,0)" xlink:href="#aA"/><use transform="matrix(0.05,0,0,0.05,5.95,0)" xlink:href="#ag"/><use transform="matrix(0.05,0,0,0.05,15.949999999999998,0)" xlink:href="#ac"/></g><g id="M"><use transform="matrix(0.05,0,0,0.05,0,0)" xlink:href="#U"/><use transform="matrix(0.05,0,0,0.05,10,0)" xlink:href="#V"/><use transform="matrix(0.05,0,0,0.05,19,0)" xlink:href="#am"/><use transform="matrix(0.05,0,0,0.05,29,0)" xlink:href="#ai"/><use transform="matrix(0.05,0,0,0.05,32.95,0)" xlink:href="#ab"/><use transform="matrix(0.05,0,0,0.05,38.900000000000006,0)" xlink:href="#R"/><use transform="matrix(0.05,0,0,0.05,48.900000000000006,0)" xlink:href="#aB"/></g></defs></g></svg>