<?xml version="1.0" encoding="UTF-8"?>
<!DOCTYPE svg PUBLIC "-//W3C//DTD SVG 1.1//EN" "http://www.w3.org/Graphics/SVG/1.1/DTD/svg11.dtd">
<!-- Creator: CorelDRAW 2019 (64-Bit) -->
<svg xmlns="http://www.w3.org/2000/svg" xml:space="preserve" width="184.869mm" height="49.9647mm" version="1.1" style="shape-rendering:geometricPrecision; text-rendering:geometricPrecision; image-rendering:optimizeQuality; fill-rule:evenodd; clip-rule:evenodd"
viewBox="0 0 184.8698 49.9649"
 xmlns:xlink="http://www.w3.org/1999/xlink"
 xmlns:xodm="http://www.corel.com/coreldraw/odm/2003">
 <defs>
  <style type="text/css">
   <![CDATA[
    .fil0 {fill:#C91205}
   ]]>
  </style>
 </defs>
 <g id="Layer_x0020_1">
  <metadata id="CorelCorpID_0Corel-Layer"/>
  <path class="fil0" d="M174.9798 23.7832l9.89 26.1817c-2.9148,-0.4164 -5.8272,-0.9378 -8.7936,-1.4074l-5.5712 -14.4663 -5.7239 13.2721c-2.8101,-0.47 -5.57,-0.6263 -8.3802,-0.991l10.045 -22.9003 -9.11 -23.472 8.432 0 5.1 13.1143 5.4666 -13.1143 8.5341 0 -9.8888 23.7832zm-24.3027 -23.7832l0 0 -7.6507 0 0 45.3847c2.4977,0.1568 5.0987,0.2596 7.6507,0.5712l0 -45.9559zm-14.2615 44.8636l0 0c-6.9727,-0.4683 -13.9486,-0.8828 -21.0783,-1.0411l0 -43.8221 7.8063 0 0 36.432c4.477,0.1035 8.952,0.4667 13.2719,0.6748l0 7.7564zm-29.4075 -27.1145l0 0 0 7.806 -10.6688 0 0 17.7475 -7.7015 0 0 -43.3026 21.8597 0 0 7.8062 -14.1568 0 0 9.9433 10.669 0 -0.0015 -0.0004zm-31.4879 -9.9429l0 0 0 35.9127c-2.6028,0 -5.256,0 -7.8075,0.1036l0 -36.0163 -8.0678 0 0 -7.8062 23.9931 0 0 7.8062 -8.1177 0zm-24.3058 18.1639l0 0c-3.4342,0 -7.495,0 -10.4095,0.1581l0 11.6052c4.5801,-0.3132 9.1601,-0.6762 13.7918,-0.8326l0 7.4945 -21.598 1.7188 0 -46.1141 21.5966 0 0 7.8062 -13.7904 0 0 10.514c3.0194,0 7.6511,-0.1564 10.4092,-0.1564l0 7.8075 0.0003 -0.0013zm-43.2529 -4.3718l0 0 0 27.2724c-2.808,0.3128 -5.3081,0.6775 -7.9614,1.0942l0 -49.9649 7.4433 0 10.1478 28.3667 0 -28.3667 7.808 0 0 46.737c-2.7582,0.4699 -5.5696,0.6263 -8.5359,1.041l-8.9018 -26.1797z"/>
 </g>
</svg>
